<?xml version="1.0" standalone="no"?>
<!DOCTYPE svg PUBLIC "-//W3C//DTD SVG 20010904//EN"
 "http://www.w3.org/TR/2001/REC-SVG-20010904/DTD/svg10.dtd">
<svg version="1.0" xmlns="http://www.w3.org/2000/svg"
 width="592.000000pt" height="592.000000pt" viewBox="0 0 592.000000 592.000000"
 preserveAspectRatio="xMidYMid meet">
<metadata>
Created by potrace 1.14, written by Peter Selinger 2001-2017
</metadata>
<g transform="translate(0.000000,592.000000) scale(0.100000,-0.100000)"
fill="#000000" stroke="none">
<path d="M2610 5909 c0 -6 -7 -9 -15 -5 -8 3 -15 0 -15 -7 0 -8 -4 -6 -10 3
-5 8 -10 10 -10 5 0 -6 -10 -11 -22 -12 -36 -2 -87 -11 -98 -18 -5 -3 -10 0
-10 7 0 9 -3 9 -8 2 -11 -17 -42 -25 -42 -11 0 7 -5 5 -10 -4 -6 -11 -18 -15
-35 -11 -14 2 -25 0 -25 -5 0 -5 -14 -9 -30 -8 -17 1 -33 -2 -36 -7 -3 -4 -14
-8 -24 -8 -10 0 -21 -6 -23 -12 -4 -9 -6 -9 -6 -1 -1 12 -41 6 -41 -6 0 -6
-20 -11 -60 -13 -8 -1 -20 -8 -27 -17 -8 -11 -12 -12 -13 -3 0 13 -2 12 -67
-22 -18 -9 -35 -17 -38 -17 -21 1 -65 -13 -65 -21 0 -5 -4 -6 -10 -3 -5 3 -10
1 -10 -4 0 -6 -8 -11 -18 -11 -10 0 -28 -7 -40 -16 -12 -8 -27 -12 -32 -9 -6
3 -12 0 -15 -7 -3 -8 -15 -14 -26 -15 -12 -1 -29 -9 -39 -18 -11 -10 -23 -14
-28 -11 -6 3 -13 -1 -16 -10 -4 -9 -9 -14 -12 -11 -4 3 -13 -1 -21 -9 -8 -8
-19 -12 -24 -9 -5 4 -9 1 -9 -5 0 -6 -4 -8 -10 -5 -5 3 -10 1 -10 -4 0 -6 -3
-10 -7 -9 -5 2 -26 -8 -48 -22 -22 -13 -48 -28 -57 -32 -10 -4 -18 -12 -18
-18 0 -6 -4 -9 -9 -5 -5 3 -16 -2 -25 -10 -8 -8 -19 -14 -23 -13 -4 2 -8 -1
-8 -6 0 -9 -45 -30 -58 -27 -5 1 -6 -2 -3 -7 3 -5 -10 -16 -29 -25 -19 -9 -35
-21 -35 -27 0 -5 -3 -9 -8 -7 -4 1 -18 -8 -31 -20 -13 -12 -29 -19 -35 -16 -6
3 -8 3 -4 -2 5 -5 -8 -19 -27 -32 -19 -13 -35 -29 -35 -35 0 -6 -3 -9 -6 -5
-4 3 -26 -14 -51 -38 -24 -24 -45 -43 -46 -42 -1 1 -13 -6 -27 -16 -13 -9 -20
-17 -15 -17 6 0 -3 -9 -20 -20 -16 -11 -26 -20 -21 -20 6 0 -5 -11 -24 -25
-19 -14 -31 -25 -27 -25 4 0 2 -6 -5 -14 -7 -8 -15 -12 -17 -10 -2 2 -15 -11
-28 -28 -12 -18 -23 -29 -23 -25 0 4 -9 -2 -20 -13 -12 -12 -19 -24 -17 -28 2
-4 -7 -17 -20 -29 -13 -12 -23 -20 -23 -17 0 3 -6 -1 -14 -8 -11 -10 -11 -17
-3 -28 6 -8 7 -12 2 -7 -11 9 -65 -41 -65 -60 0 -8 -4 -11 -10 -8 -5 3 -10 3
-10 -2 0 -4 -18 -31 -39 -60 -22 -28 -37 -54 -34 -57 4 -3 1 -6 -6 -6 -6 0
-16 -11 -21 -25 -5 -14 -15 -25 -21 -25 -7 0 -10 -3 -7 -6 6 -5 -26 -60 -52
-91 -5 -7 -10 -17 -10 -23 0 -5 -5 -10 -11 -10 -6 0 -9 -6 -6 -12 2 -7 -5 -21
-16 -30 -11 -10 -16 -18 -11 -18 5 0 2 -6 -6 -13 -15 -12 -22 -30 -23 -54 0
-7 -7 -15 -14 -17 -8 -3 -11 -10 -8 -16 3 -5 1 -10 -5 -10 -6 0 -9 -4 -6 -9 3
-5 -1 -14 -9 -21 -8 -7 -12 -16 -9 -21 3 -5 0 -9 -5 -9 -6 0 -10 -3 -10 -7 3
-20 -2 -34 -11 -28 -6 3 -10 -4 -10 -17 0 -13 -5 -29 -12 -36 -6 -6 -13 -22
-15 -34 -2 -12 -8 -25 -13 -28 -5 -3 -11 -15 -13 -25 -1 -11 -6 -26 -10 -32
-5 -7 -5 -17 -2 -23 3 -5 1 -10 -4 -10 -6 0 -11 -9 -11 -19 0 -11 -5 -21 -11
-23 -10 -3 -17 -29 -21 -75 -1 -7 -6 -13 -11 -13 -5 0 -7 -9 -4 -20 3 -11 1
-20 -5 -20 -6 0 -8 -7 -4 -15 3 -8 2 -15 -3 -15 -4 0 -14 -26 -21 -57 -7 -32
-16 -66 -21 -75 -7 -13 -6 -18 3 -18 10 0 10 -2 0 -9 -8 -4 -13 -11 -13 -15 1
-3 1 -7 0 -8 -3 -10 -12 -67 -13 -83 0 -11 -8 -25 -16 -32 -8 -7 -10 -13 -5
-13 6 0 10 -11 10 -24 0 -13 -3 -22 -7 -20 -4 2 -9 0 -13 -6 -3 -5 0 -10 7
-10 9 0 9 -3 -2 -10 -13 -9 -13 -10 0 -10 13 0 13 -1 0 -10 -13 -8 -13 -10 -1
-10 11 0 9 -4 -5 -15 -12 -9 -14 -14 -6 -15 7 0 10 -4 7 -10 -17 -27 -20 -80
-22 -397 -3 -252 0 -343 8 -343 6 0 9 -9 6 -20 -3 -11 -2 -20 1 -20 4 0 8 -21
10 -47 1 -26 7 -50 13 -54 8 -5 8 -8 0 -13 -8 -5 -8 -13 0 -28 6 -11 13 -37
14 -57 2 -20 4 -38 5 -41 2 -3 2 -8 1 -12 0 -5 5 -8 12 -8 8 0 7 -4 -3 -10
-10 -6 -11 -10 -3 -10 7 0 12 -3 12 -7 -1 -5 0 -10 1 -13 1 -3 4 -18 6 -34 3
-16 10 -38 15 -48 7 -13 6 -18 -2 -18 -8 0 -6 -7 4 -18 10 -10 14 -22 10 -25
-3 -4 0 -7 8 -7 11 0 11 -2 -1 -10 -10 -6 -11 -10 -2 -10 6 0 12 -11 12 -25 0
-14 5 -25 10 -25 6 0 10 -11 10 -24 0 -14 5 -28 10 -31 6 -4 8 -11 5 -16 -4
-5 -2 -9 4 -9 6 0 8 -7 5 -15 -4 -8 -2 -15 3 -15 5 0 9 -10 10 -22 1 -11 8
-25 15 -29 10 -7 10 -9 -2 -10 -10 0 -8 -3 5 -9 11 -5 14 -9 7 -9 -8 -1 -3
-15 14 -42 14 -23 20 -38 12 -34 -7 3 -5 0 5 -8 10 -9 15 -21 11 -31 -4 -11
-1 -16 11 -16 9 0 13 -5 9 -11 -3 -6 -1 -15 5 -19 7 -4 13 -17 14 -28 1 -12 5
-22 10 -22 4 0 6 -4 2 -9 -3 -6 3 -14 12 -20 10 -5 17 -12 16 -15 -4 -11 27
-76 37 -76 5 0 7 -7 4 -15 -4 -8 -1 -15 5 -15 6 0 11 -7 11 -15 0 -8 5 -15 10
-15 6 0 10 -9 10 -21 0 -13 4 -18 12 -13 8 5 9 2 5 -9 -4 -11 -1 -17 8 -17 8
0 15 -9 15 -20 0 -11 5 -20 10 -20 6 0 10 -7 10 -15 0 -8 5 -15 10 -15 6 0 10
-7 10 -15 0 -8 5 -15 10 -15 6 0 10 -9 10 -20 0 -11 7 -20 16 -20 8 0 12 -4 9
-10 -3 -5 3 -15 15 -22 11 -7 20 -17 20 -21 0 -16 37 -56 45 -49 5 4 5 1 1 -6
-5 -8 0 -20 13 -31 12 -10 21 -24 21 -30 0 -7 4 -9 10 -6 5 3 10 1 10 -5 0 -7
18 -32 40 -57 22 -25 40 -50 40 -54 0 -5 4 -9 10 -9 12 0 59 -47 53 -53 -2 -3
4 -8 15 -11 10 -4 25 -17 32 -31 7 -13 16 -23 19 -21 3 2 22 -16 41 -40 19
-23 40 -43 47 -43 6 -1 15 -10 18 -22 4 -11 9 -18 12 -16 2 3 21 -10 41 -29
20 -19 43 -34 50 -34 7 0 10 -4 7 -10 -3 -5 0 -10 7 -10 8 0 20 -9 28 -20 8
-11 18 -20 22 -20 7 0 24 -12 62 -45 29 -25 76 -55 86 -55 6 0 8 -5 4 -12 -5
-7 -2 -9 8 -6 8 4 20 -2 27 -14 7 -11 18 -17 26 -14 7 2 15 -1 18 -7 3 -7 22
-21 43 -32 21 -11 47 -28 58 -38 11 -9 28 -17 38 -17 10 0 18 -4 18 -10 0 -5
7 -10 15 -10 8 0 15 -4 15 -10 0 -5 9 -10 20 -10 11 0 20 -4 20 -9 0 -5 10
-12 23 -16 12 -4 25 -8 30 -10 4 -1 12 -3 18 -4 5 0 7 -6 3 -13 -4 -6 -3 -9 2
-6 5 3 20 1 34 -5 14 -5 31 -11 39 -13 8 -1 17 -7 20 -12 8 -12 71 -33 81 -27
4 3 11 -2 14 -11 3 -8 10 -13 15 -9 5 3 12 1 15 -4 3 -5 22 -12 41 -15 19 -4
35 -12 35 -18 0 -6 3 -9 6 -5 4 3 22 0 40 -8 19 -8 34 -11 34 -8 0 3 6 0 13
-6 8 -6 17 -8 20 -4 4 3 7 2 7 -3 0 -9 7 -11 65 -15 14 -1 25 -7 25 -13 0 -7
12 -11 30 -10 17 1 33 -2 36 -7 3 -5 18 -9 34 -9 16 0 32 -5 35 -10 5 -8 11
-7 21 1 10 8 14 8 14 0 0 -6 14 -11 30 -11 17 0 30 -5 30 -11 0 -8 4 -8 14 0
10 8 16 9 21 1 3 -5 22 -10 41 -10 20 0 34 -5 34 -12 0 -10 3 -9 9 1 6 9 10
10 16 2 5 -9 10 -9 21 0 11 9 15 8 20 -5 5 -14 44 -16 369 -16 215 0 365 4
367 9 3 8 89 24 141 25 9 0 17 3 17 6 0 3 17 7 37 8 21 2 40 6 43 10 3 4 22 7
43 7 20 0 37 4 37 8 0 5 7 7 15 4 8 -4 17 -1 21 4 3 6 15 8 26 6 11 -3 21 0
25 9 4 11 9 12 19 3 8 -6 14 -7 14 -2 0 5 12 15 26 21 14 7 23 8 19 2 -3 -5
10 -3 28 5 19 8 37 11 41 8 3 -4 6 -1 6 5 0 7 9 12 20 12 11 0 20 5 20 12 0 9
3 9 11 1 9 -9 15 -8 26 3 8 8 23 14 34 14 10 0 19 5 19 12 0 6 3 9 6 6 3 -4
17 0 31 7 15 8 30 12 35 9 4 -3 8 0 8 7 0 7 3 9 6 6 7 -7 64 22 76 38 5 6 8 4
8 -5 0 -10 7 -7 20 10 13 17 20 20 20 10 1 -11 4 -10 15 4 8 11 15 16 15 12 0
-5 6 -3 13 3 8 6 17 8 20 4 4 -3 7 -1 7 5 0 13 59 44 71 36 5 -3 9 -1 9 4 0 4
16 16 35 25 19 9 35 21 35 27 0 5 3 9 8 9 17 -3 29 2 48 19 11 9 37 26 59 37
22 11 44 25 48 32 4 7 15 13 22 13 8 0 15 4 15 8 0 4 12 15 28 24 24 15 48 33
92 70 8 7 20 12 27 10 8 -2 10 3 7 13 -5 11 -2 14 12 9 11 -4 16 -4 12 0 -8
10 30 48 42 41 5 -3 12 4 15 16 4 11 9 18 12 15 3 -3 41 30 85 72 43 43 79 78
81 77 1 -1 10 7 20 17 9 10 14 18 11 18 -3 0 13 16 36 35 23 19 38 35 34 35
-4 0 1 7 12 15 10 8 15 15 11 15 -4 0 -2 6 5 14 7 8 16 12 21 9 4 -2 7 2 7 10
0 8 7 18 16 21 9 4 14 9 11 13 -4 3 5 14 18 25 13 10 27 27 30 38 4 11 11 18
16 15 5 -4 9 1 9 9 0 9 5 16 12 16 6 0 9 3 6 6 -4 3 2 14 13 25 11 11 17 25
13 31 -4 7 -3 8 4 4 7 -4 12 -2 12 4 0 6 4 9 8 6 4 -2 9 5 9 16 1 11 9 25 17
31 8 7 23 29 34 50 11 21 23 37 27 37 4 -1 9 1 13 4 3 3 0 6 -7 6 -8 0 -7 5 3
16 9 8 16 20 16 25 0 6 5 7 11 3 7 -4 10 1 7 12 -2 11 5 28 15 39 10 11 20 30
23 42 4 13 10 23 15 23 5 0 9 6 9 14 0 7 9 25 20 38 10 14 16 28 13 32 -4 3 2
13 13 21 10 8 15 15 10 15 -5 0 -1 9 9 20 10 11 15 20 10 20 -4 0 -2 7 5 15 7
8 9 15 4 15 -5 0 -3 4 4 9 7 4 14 18 15 29 1 12 5 22 10 22 5 0 7 6 5 12 -3 7
1 19 9 26 7 8 11 18 8 23 -4 5 -1 9 5 9 6 0 8 4 5 10 -3 5 -1 10 5 10 6 0 9 4
5 9 -3 5 0 13 6 16 5 4 8 13 5 20 -2 7 2 16 10 19 9 3 13 10 9 15 -3 6 1 26 9
46 8 19 15 38 15 40 0 3 8 30 16 60 9 30 16 57 16 60 0 2 6 23 14 46 8 22 14
43 14 47 -1 4 0 10 1 15 6 17 8 28 9 53 1 16 5 23 12 18 8 -5 9 -2 1 11 -7 14
-6 22 4 32 7 8 10 21 7 29 -3 9 0 20 8 25 12 7 12 9 0 9 -9 0 -10 4 -4 13 6 6
9 20 8 30 -2 9 2 17 8 17 8 0 8 3 2 8 -14 10 -12 35 3 47 10 8 12 90 9 385 -2
206 -7 389 -11 405 -4 17 -8 38 -9 48 -1 9 -6 17 -12 17 -5 0 -3 5 5 10 8 5
10 10 4 10 -6 0 -10 10 -9 23 1 12 -2 28 -8 34 -5 7 -7 24 -5 38 4 17 1 25 -8
25 -7 0 -11 6 -8 14 3 7 -4 49 -15 92 -11 43 -17 82 -14 87 3 6 1 7 -4 4 -6
-4 -13 5 -16 21 -8 44 -26 101 -48 157 -4 11 -13 39 -20 63 -7 23 -16 42 -22
42 -5 0 -6 7 -3 15 3 9 -1 18 -9 21 -8 4 -13 9 -10 13 2 4 -2 19 -10 34 -8 15
-11 27 -8 27 3 0 -2 9 -12 20 -10 11 -14 20 -10 20 4 0 1 8 -8 18 -10 10 -14
22 -10 25 3 4 1 7 -6 7 -7 0 -9 5 -6 10 3 6 1 10 -5 10 -6 0 -8 5 -5 10 3 6 1
10 -6 10 -7 0 -10 3 -6 6 3 4 -1 13 -9 21 -8 8 -12 19 -9 24 4 5 1 9 -5 9 -6
0 -8 5 -5 10 3 6 1 10 -6 10 -7 0 -10 3 -6 6 3 4 -5 22 -18 42 -13 19 -22 39
-19 44 3 4 -2 8 -11 8 -9 0 -13 5 -10 10 3 6 2 10 -3 10 -4 0 -14 16 -22 35
-8 19 -17 35 -22 35 -4 0 -8 6 -8 14 0 8 -4 16 -8 18 -5 2 -28 32 -52 68 -46
69 -120 163 -132 168 -5 2 -8 10 -8 18 0 8 -4 14 -10 14 -5 0 -10 7 -10 16 0
8 -4 12 -10 9 -5 -3 -10 0 -10 7 0 7 -16 24 -34 38 -19 14 -32 28 -31 31 2 3
-5 12 -16 19 -10 8 -19 20 -19 27 0 6 -9 14 -19 18 -11 3 -23 14 -26 23 -3 9
-21 28 -40 42 -19 14 -35 30 -35 36 0 11 -28 28 -40 26 -3 0 -15 13 -25 29
-11 16 -26 29 -32 29 -7 0 -18 9 -25 20 -7 11 -16 20 -20 20 -7 0 -48 33 -83
67 -7 7 -15 9 -19 6 -3 -3 -8 2 -12 11 -3 9 -10 14 -14 11 -4 -3 -10 2 -14 10
-3 8 -12 15 -20 15 -8 0 -16 3 -18 8 -6 14 -76 61 -82 55 -3 -4 -6 -1 -6 5 0
7 -7 12 -16 12 -8 0 -12 5 -9 10 3 6 -2 10 -12 10 -10 0 -31 11 -47 25 -16 13
-33 22 -37 19 -5 -3 -9 0 -9 6 0 6 -4 8 -10 5 -5 -3 -10 1 -10 10 0 11 -5 15
-14 12 -8 -3 -23 3 -34 13 -11 10 -23 16 -26 13 -3 -4 -6 -1 -6 6 0 7 -4 10
-9 6 -6 -3 -19 5 -30 17 -15 15 -21 18 -21 7 -1 -12 -3 -12 -13 1 -14 17 -67
43 -74 36 -3 -3 -14 4 -26 14 -11 11 -24 17 -29 14 -4 -3 -8 0 -8 5 0 6 -9 11
-20 11 -11 0 -20 4 -20 9 0 6 -9 8 -20 6 -12 -2 -23 2 -27 10 -3 8 -9 15 -15
15 -5 0 -6 -6 -2 -12 4 -7 -2 -5 -13 5 -11 9 -23 14 -26 10 -4 -3 -7 -1 -7 5
0 7 -8 12 -18 12 -10 0 -24 6 -31 13 -10 9 -12 9 -7 0 5 -8 -2 -8 -20 2 -15 8
-31 12 -36 9 -4 -3 -8 0 -8 5 0 6 -10 11 -23 11 -13 0 -28 5 -35 12 -9 9 -12
9 -12 -1 0 -9 -5 -8 -16 3 -8 9 -20 14 -25 11 -5 -4 -9 0 -9 7 0 9 -3 9 -10
-2 -6 -10 -10 -11 -10 -2 0 6 -12 12 -28 12 -15 0 -33 5 -40 12 -9 9 -12 9
-12 -3 0 -11 -2 -11 -9 -1 -4 7 -21 15 -37 17 -16 2 -29 4 -29 5 0 4 -46 12
-82 13 -24 1 -43 5 -43 10 0 4 -15 7 -32 8 -18 0 -42 4 -53 8 -11 5 -25 4 -32
-1 -9 -7 -15 -5 -19 6 -5 14 -43 16 -355 16 -249 0 -349 -3 -349 -11z m361
-869 c11 7 20 7 24 0 3 -6 48 -10 101 -10 58 0 94 -4 94 -10 0 -7 6 -7 20 0
11 6 20 7 20 3 0 -7 27 -11 105 -16 17 -1 32 -5 35 -8 3 -4 16 -9 30 -10 14
-2 28 -8 32 -14 5 -6 8 -6 8 2 0 9 9 8 35 -3 19 -8 35 -11 35 -7 0 4 5 2 12
-5 7 -7 20 -12 30 -12 10 0 18 -6 19 -12 0 -9 2 -9 5 -2 5 13 63 -3 75 -20 4
-5 12 -5 18 -2 6 4 11 2 11 -4 0 -7 7 -10 15 -6 8 3 15 1 15 -4 0 -6 9 -10 20
-10 11 0 20 -4 20 -10 0 -5 7 -10 15 -10 8 0 38 -11 66 -25 29 -13 56 -22 62
-18 6 3 7 2 4 -4 -3 -5 25 -25 63 -43 39 -19 70 -37 70 -42 0 -4 5 -8 11 -8 6
0 30 -13 54 -30 24 -16 49 -30 55 -30 6 0 8 -4 5 -10 -3 -5 1 -10 9 -10 9 0
16 -4 16 -8 0 -4 15 -16 33 -27 17 -10 36 -24 40 -32 4 -7 14 -13 20 -13 7 0
19 -9 27 -19 7 -11 17 -18 22 -15 4 3 8 -1 9 -8 0 -7 20 -29 43 -48 24 -19 41
-38 39 -42 -2 -5 3 -8 12 -8 9 0 13 -4 10 -10 -3 -5 1 -10 9 -10 8 0 18 -9 21
-20 4 -11 11 -18 16 -15 5 4 9 1 9 -4 0 -6 14 -24 30 -39 17 -16 30 -32 30
-35 0 -2 14 -19 30 -37 17 -18 30 -39 30 -47 0 -8 5 -11 10 -8 6 3 10 -1 10
-9 0 -9 5 -16 10 -16 6 0 10 -5 10 -10 0 -6 11 -22 25 -36 14 -14 23 -30 20
-35 -4 -5 -1 -9 4 -9 6 0 11 -7 11 -15 0 -8 5 -15 10 -15 6 0 10 -7 10 -15 0
-8 4 -15 9 -15 5 0 14 -13 21 -30 7 -16 15 -30 19 -30 4 0 7 -10 8 -22 1 -11
8 -25 15 -29 7 -5 9 -9 3 -9 -5 0 -3 -6 5 -13 9 -7 15 -19 15 -27 0 -8 7 -22
16 -30 9 -8 15 -23 13 -32 -1 -9 5 -19 13 -22 8 -3 11 -11 8 -16 -4 -6 -1 -17
5 -25 6 -8 9 -19 5 -25 -3 -5 1 -10 9 -10 8 0 15 -8 15 -17 1 -40 5 -53 14
-53 5 0 7 -7 3 -15 -3 -8 -1 -15 5 -15 6 0 9 -7 5 -15 -3 -8 -1 -15 5 -15 6 0
9 -7 5 -15 -3 -8 0 -15 6 -15 6 0 8 -3 5 -7 -4 -3 -2 -12 4 -20 6 -7 8 -13 3
-13 -5 0 -2 -5 6 -10 11 -7 11 -10 2 -10 -10 0 -10 -5 -1 -21 10 -19 15 -43
23 -114 1 -11 8 -30 15 -42 9 -18 9 -23 -1 -24 -11 0 -11 -2 0 -6 10 -4 10 -8
1 -19 -9 -11 -9 -14 0 -14 7 0 9 -4 6 -10 -3 -5 -2 -10 4 -10 6 0 6 -11 1 -30
-5 -17 -5 -30 0 -30 5 0 11 -94 12 -209 2 -115 0 -207 -3 -205 -4 2 -9 -12
-11 -31 -2 -19 0 -35 5 -35 5 0 4 -7 -3 -15 -7 -8 -9 -15 -4 -15 5 0 2 -5 -6
-10 -12 -8 -12 -10 -1 -10 9 0 10 -4 4 -12 -6 -7 -9 -21 -8 -30 2 -10 0 -18
-3 -18 -4 0 -8 -17 -10 -37 -1 -20 -8 -41 -15 -45 -9 -6 -9 -8 1 -8 10 0 10
-5 2 -20 -6 -11 -8 -25 -5 -30 3 -6 1 -10 -5 -10 -7 0 -10 -6 -7 -14 3 -7 1
-18 -4 -23 -5 -5 -10 -21 -11 -36 -1 -15 -6 -27 -10 -27 -4 0 -8 -11 -8 -25 0
-14 -4 -25 -10 -25 -5 0 -7 -7 -4 -15 4 -8 1 -15 -7 -15 -7 0 -10 -3 -6 -6 3
-4 0 -19 -9 -35 -8 -16 -13 -29 -10 -29 2 0 -10 -28 -27 -62 -17 -35 -30 -66
-29 -70 1 -5 -3 -8 -10 -8 -6 0 -9 -3 -5 -6 8 -8 -54 -124 -66 -124 -6 0 -7
-3 -4 -6 4 -4 -2 -19 -13 -34 -11 -15 -16 -31 -12 -35 4 -5 2 -5 -5 -2 -6 4
-15 -5 -22 -23 -5 -17 -15 -30 -20 -30 -6 0 -11 -7 -11 -15 0 -8 -4 -15 -8
-15 -5 0 -17 -15 -27 -34 -11 -19 -23 -33 -27 -30 -7 5 -11 -10 -5 -20 1 -2
-10 -14 -26 -26 -15 -12 -25 -25 -23 -28 2 -4 -2 -13 -10 -20 -8 -7 -14 -10
-14 -6 0 3 -16 -14 -35 -38 -50 -62 -76 -87 -92 -90 -5 0 -18 -15 -30 -31 -13
-17 -23 -27 -23 -23 0 4 -14 -6 -31 -23 -17 -17 -35 -31 -40 -31 -6 0 -8 -4
-4 -9 3 -5 -4 -12 -15 -16 -11 -3 -20 -11 -20 -17 0 -6 -3 -8 -7 -5 -3 4 -16
-5 -29 -18 -13 -14 -27 -26 -31 -28 -5 -1 -7 -5 -6 -9 2 -5 0 -7 -5 -7 -20 3
-43 -2 -38 -9 2 -4 -10 -14 -27 -22 -18 -7 -38 -21 -45 -29 -11 -13 -12 -13
-7 -1 5 12 4 12 -7 -1 -7 -9 -23 -19 -36 -23 -12 -4 -19 -12 -16 -18 5 -7 2
-8 -6 -3 -7 4 -15 2 -20 -4 -4 -7 -16 -13 -28 -14 -12 0 -24 -7 -26 -14 -3 -7
-15 -13 -26 -13 -11 0 -20 -4 -20 -10 0 -5 -7 -10 -15 -10 -8 0 -15 -6 -15
-12 0 -9 -4 -8 -10 2 -6 10 -10 11 -10 3 0 -7 -3 -12 -7 -11 -5 1 -30 -8 -56
-20 -27 -12 -55 -22 -62 -22 -8 0 -17 -5 -21 -11 -3 -6 -15 -9 -25 -6 -11 3
-17 1 -13 -4 3 -5 -3 -9 -13 -9 -10 0 -30 -7 -45 -14 -18 -9 -28 -11 -28 -4 0
7 -4 7 -13 0 -13 -11 -66 -24 -104 -26 -13 -1 -23 -5 -23 -10 0 -4 -7 -6 -15
-2 -8 3 -15 0 -15 -6 0 -7 -4 -7 -14 1 -9 8 -15 8 -18 2 -3 -11 -64 -20 -188
-27 -41 -3 -87 -9 -101 -13 -14 -5 -32 -5 -40 -1 -7 5 -21 4 -31 -1 -12 -7
-18 -6 -18 1 0 7 -6 8 -19 1 -10 -6 -21 -7 -25 -4 -7 7 -25 9 -123 13 -34 2
-67 7 -74 11 -7 4 -21 3 -31 -2 -12 -6 -18 -6 -18 1 0 5 -10 10 -22 10 -60 1
-68 2 -68 8 0 4 -17 8 -38 10 -20 1 -38 7 -40 12 -2 6 -11 6 -23 0 -15 -9 -19
-7 -19 5 0 9 -5 13 -10 10 -13 -8 -82 14 -92 29 -5 8 -8 7 -8 -1 0 -16 -50 5
-50 21 0 6 -5 4 -10 -4 -7 -12 -10 -12 -10 -1 0 8 -6 11 -15 7 -9 -3 -18 1
-22 9 -4 12 -9 13 -19 4 -10 -8 -14 -8 -14 0 0 6 -7 11 -15 11 -8 0 -15 5 -15
10 0 6 -8 10 -17 10 -10 0 -33 9 -51 20 -18 11 -37 18 -43 15 -5 -4 -9 1 -9 9
0 10 -6 13 -16 9 -10 -4 -20 0 -26 10 -5 10 -17 17 -28 17 -10 0 -20 3 -22 8
-2 4 -24 18 -51 32 -26 13 -47 28 -47 32 0 5 -7 8 -15 8 -8 0 -15 5 -15 11 0
5 -4 7 -10 4 -5 -3 -10 -1 -10 5 0 6 -4 9 -8 6 -5 -3 -14 4 -22 14 -8 10 -17
17 -22 14 -4 -3 -8 -1 -8 5 0 5 -17 20 -37 32 -21 13 -44 31 -51 41 -7 10 -17
16 -21 14 -4 -3 -14 6 -21 19 -7 14 -21 27 -30 30 -20 6 -90 72 -83 78 2 3 -5
8 -16 12 -12 3 -21 12 -21 20 0 8 -9 17 -20 20 -11 3 -20 13 -20 21 0 8 -4 14
-9 14 -5 0 -13 9 -16 20 -3 11 -13 20 -21 20 -8 0 -14 5 -14 12 0 6 -6 18 -14
27 -8 9 -26 28 -39 43 -14 15 -22 29 -19 32 3 3 0 6 -7 6 -7 0 -10 4 -7 8 3 5
-4 15 -15 22 -10 8 -19 20 -19 27 0 7 -4 13 -10 13 -5 0 -10 7 -10 15 0 8 -4
15 -10 15 -5 0 -9 3 -8 8 2 4 -12 28 -29 53 -18 26 -29 49 -26 53 4 3 1 6 -6
6 -7 0 -9 5 -6 10 3 6 1 10 -5 10 -6 0 -9 4 -5 9 3 5 0 15 -7 23 -22 23 -48
75 -41 82 3 3 1 6 -5 6 -7 0 -12 9 -12 20 0 11 -4 20 -10 20 -5 0 -10 9 -10
21 0 11 -7 28 -16 36 -13 13 -13 17 -2 24 8 6 9 9 2 9 -10 0 -26 39 -23 56 0
4 -3 10 -8 13 -8 6 -35 94 -36 119 0 6 -3 12 -7 12 -3 0 -7 15 -8 33 -2 17 -7
33 -11 35 -5 2 -7 12 -4 22 3 12 0 20 -7 20 -10 0 -10 3 -1 14 8 10 9 16 1 21
-6 3 -8 11 -5 16 4 5 0 9 -7 9 -10 0 -10 2 1 9 9 6 10 11 2 15 -6 4 -9 12 -5
17 3 5 1 16 -6 24 -7 8 -7 15 -1 19 6 4 4 16 -4 33 -10 20 -11 31 -3 40 7 9 7
13 -1 13 -8 0 -9 5 -1 19 7 14 7 22 -1 27 -8 4 -7 9 2 15 10 6 11 9 2 9 -10 0
-13 34 -13 135 0 93 3 135 11 135 8 0 9 4 0 13 -6 8 -8 17 -4 21 11 10 12 36
2 36 -5 0 -4 11 1 25 5 13 10 42 12 65 1 22 5 40 8 40 3 0 5 16 5 36 -1 20 3
41 9 47 6 7 11 23 12 37 2 37 9 73 17 87 4 6 8 23 9 37 1 14 6 26 10 26 4 0 8
8 8 18 0 10 5 23 12 30 9 9 9 12 -3 12 -11 0 -11 2 -1 9 7 4 14 18 15 29 1 12
5 22 9 22 4 0 8 7 8 15 0 8 6 15 13 15 9 0 8 3 -2 9 -9 6 -10 11 -2 15 6 4 9
11 6 16 -3 4 2 10 10 13 8 4 12 15 10 27 -2 11 0 20 5 20 5 0 20 26 35 57 14
32 31 61 38 65 9 6 8 8 -3 8 -10 0 -7 7 10 20 15 12 19 20 11 20 -8 0 -2 11
15 27 16 15 28 33 26 40 -2 7 2 13 8 13 6 0 9 4 6 9 -3 5 1 12 10 15 8 3 12
10 9 16 -3 5 1 10 10 10 9 0 13 4 10 10 -3 5 4 20 15 32 12 13 30 38 41 56 12
17 25 32 30 32 6 0 8 4 5 9 -4 5 -3 11 1 13 5 1 23 20 41 41 17 21 32 35 32
32 0 -3 8 3 18 13 11 9 17 20 15 24 -2 4 7 14 19 22 12 9 18 16 13 16 -5 0 5
11 23 23 17 13 28 28 24 32 -4 5 0 6 8 4 8 -3 29 10 47 28 17 18 29 33 25 33
-3 0 16 16 43 34 27 19 53 32 58 29 6 -3 7 -1 3 6 -8 12 11 34 34 39 8 2 20
10 26 17 6 8 14 12 17 8 4 -3 7 -1 7 5 0 6 9 14 20 17 11 3 26 13 34 20 8 8
20 16 27 17 7 2 22 11 33 20 10 10 22 15 26 13 5 -3 11 2 14 11 4 9 9 14 13
11 3 -4 18 2 33 13 15 11 30 17 34 13 3 -3 6 -1 6 6 0 7 6 11 14 8 8 -3 16 -2
18 2 5 14 108 59 108 47 0 -8 2 -8 8 0 8 12 43 28 55 26 4 -1 7 2 7 8 0 6 3 9
8 8 4 0 14 1 22 5 24 9 74 20 83 19 4 -1 7 2 7 7 0 5 8 8 18 6 9 -1 23 2 30 8
7 5 29 11 48 12 20 1 39 6 42 11 4 5 22 9 40 9 17 -1 32 2 32 6 0 4 8 6 18 4
9 -1 23 2 30 8 8 6 12 5 12 -4 0 -11 2 -11 10 1 5 8 10 11 10 6 0 -5 7 -3 15
4 9 8 15 8 15 2 0 -7 10 -8 28 -3 15 5 68 9 117 10 51 1 92 7 94 12 2 7 7 7
14 0 6 -6 16 -7 28 -1z"/>
<path d="M2765 4759 c-11 -4 -37 -8 -57 -8 -21 -1 -38 -4 -38 -8 0 -5 -21 -9
-46 -10 -25 -1 -52 -7 -60 -14 -11 -9 -14 -9 -14 1 0 9 -3 10 -13 1 -8 -6 -22
-12 -33 -14 -31 -6 -78 -18 -94 -24 -8 -4 -19 -7 -23 -7 -4 -1 -11 -5 -15 -11
-4 -5 -11 -10 -17 -10 -21 0 -105 -30 -105 -37 0 -4 -11 -8 -25 -8 -14 0 -25
-5 -25 -11 0 -5 -4 -8 -9 -5 -5 4 -11 1 -13 -4 -2 -6 -10 -12 -18 -14 -30 -6
-90 -36 -90 -45 0 -9 -40 -27 -49 -22 -2 2 -8 -4 -13 -13 -5 -9 -13 -14 -19
-11 -5 4 -9 1 -9 -4 0 -6 -7 -11 -16 -11 -8 0 -12 -4 -9 -10 3 -5 0 -10 -8
-10 -7 0 -28 -13 -47 -30 -18 -16 -36 -28 -38 -25 -3 2 -13 -7 -24 -20 -11
-14 -26 -25 -33 -25 -8 0 -17 -9 -20 -20 -4 -11 -10 -18 -15 -15 -5 3 -10 2
-12 -3 -1 -4 -16 -17 -32 -30 -16 -12 -25 -22 -20 -22 4 0 -7 -11 -26 -25 -19
-14 -31 -25 -28 -25 2 0 -12 -19 -33 -41 -21 -23 -36 -46 -33 -51 3 -5 2 -8
-3 -7 -17 3 -33 -1 -31 -8 3 -16 -14 -43 -24 -37 -5 3 -8 0 -6 -7 1 -8 -12
-29 -30 -48 -17 -19 -30 -37 -27 -39 2 -2 -1 -10 -8 -18 -29 -33 -37 -44 -37
-54 0 -6 -7 -13 -16 -17 -12 -4 -13 -7 -3 -14 11 -6 10 -9 -4 -15 -9 -3 -17
-12 -17 -20 0 -8 -5 -14 -11 -14 -6 0 -9 -7 -5 -15 3 -8 2 -15 -2 -15 -4 0
-16 -12 -26 -27 -11 -14 -14 -23 -8 -19 7 4 12 2 12 -3 0 -6 -4 -11 -9 -11
-10 0 -35 -58 -34 -77 0 -7 -5 -13 -11 -13 -6 0 -13 -9 -14 -20 -4 -43 -6 -50
-14 -50 -4 0 -8 -11 -8 -25 0 -14 -4 -25 -9 -25 -5 0 -8 -11 -7 -25 2 -13 -1
-22 -5 -19 -5 3 -9 -4 -9 -15 0 -12 -5 -21 -10 -21 -7 0 -7 -6 0 -20 6 -11 7
-20 2 -20 -5 0 -9 -6 -10 -12 -2 -33 -14 -73 -24 -79 -6 -4 -7 -9 0 -13 5 -3
7 -17 5 -31 -3 -13 -10 -22 -15 -19 -6 4 -5 -3 1 -15 9 -15 9 -21 1 -21 -7 0
-10 -6 -7 -12 2 -7 0 -21 -4 -30 -6 -10 -5 -19 1 -23 8 -5 7 -11 -1 -21 -9
-11 -9 -14 1 -14 10 0 10 -3 0 -15 -14 -17 -12 -302 2 -322 5 -6 4 -14 -3 -18
-8 -6 -8 -9 1 -15 7 -4 13 -28 14 -51 1 -24 5 -50 9 -56 5 -8 3 -13 -5 -13
-10 0 -11 -2 0 -8 7 -5 14 -24 16 -43 2 -19 9 -47 15 -63 7 -16 10 -35 7 -43
-3 -8 2 -13 12 -13 15 0 15 -2 2 -10 -11 -7 -11 -10 -2 -10 7 0 11 -4 8 -9 -4
-5 -2 -11 4 -13 5 -1 10 -18 12 -35 1 -18 6 -33 11 -33 5 0 7 -7 3 -15 -3 -8
-1 -15 5 -15 6 0 8 -4 5 -9 -4 -5 -1 -11 4 -13 6 -2 12 -10 14 -18 5 -33 18
-60 27 -60 6 0 8 -4 5 -8 -3 -5 3 -25 14 -44 10 -20 16 -39 12 -44 -4 -4 -1
-4 6 0 7 4 12 2 12 -7 0 -8 9 -26 20 -39 10 -14 16 -28 13 -32 -3 -3 0 -6 7
-6 7 0 11 -3 7 -6 -3 -3 5 -18 18 -32 13 -14 22 -29 19 -34 -3 -4 0 -8 5 -8 6
0 11 -5 11 -10 0 -6 7 -18 16 -28 35 -38 64 -77 64 -85 0 -5 13 -20 30 -33 16
-14 38 -39 47 -55 10 -16 23 -29 29 -29 7 0 16 -9 19 -20 3 -11 13 -20 21 -20
8 0 14 -6 14 -14 0 -8 9 -18 20 -21 11 -4 18 -11 15 -16 -4 -5 0 -9 7 -9 8 0
20 -9 28 -19 7 -11 17 -18 21 -16 4 3 9 -2 13 -10 3 -8 12 -15 21 -15 8 0 15
-7 15 -16 0 -8 5 -12 10 -9 6 3 10 2 10 -2 0 -5 12 -16 28 -25 15 -9 38 -26
51 -37 13 -11 28 -18 32 -15 5 3 9 0 9 -5 0 -6 7 -11 16 -11 8 0 12 -5 9 -10
-5 -9 16 -15 38 -11 5 1 6 -3 3 -8 -4 -5 9 -15 28 -22 20 -7 32 -17 29 -23 -3
-6 -3 -8 1 -4 4 3 34 -7 66 -23 32 -16 64 -29 69 -29 6 0 11 -6 11 -12 0 -9 3
-8 10 2 8 12 10 12 16 -3 3 -9 10 -14 15 -11 5 3 9 1 9 -5 0 -6 7 -8 15 -5 8
4 15 2 15 -3 0 -5 14 -10 32 -11 18 -2 35 -7 38 -12 3 -6 18 -11 33 -12 15 -1
27 -6 27 -10 0 -4 11 -8 23 -8 13 0 27 -3 30 -6 4 -4 23 -8 43 -10 21 -2 41
-9 46 -16 6 -10 8 -10 8 1 0 10 3 11 13 2 10 -8 17 -7 25 1 9 9 12 9 12 0 0
-7 14 -12 34 -12 19 0 38 -5 41 -10 5 -8 11 -8 19 -1 7 6 16 8 20 4 9 -9 31
-11 164 -13 62 -1 116 1 119 4 3 3 12 1 20 -5 8 -7 13 -8 13 -1 0 5 11 12 25
14 14 3 25 1 25 -4 0 -5 5 -6 10 -3 6 4 25 9 43 11 18 3 43 7 57 9 14 2 39 7
55 10 17 4 39 8 50 9 11 2 27 6 35 9 26 9 75 20 83 19 4 -1 7 3 7 10 0 6 3 9
6 6 3 -3 35 5 71 18 36 13 69 22 73 19 4 -3 11 2 14 11 3 8 11 12 17 8 6 -3
15 0 20 7 4 8 12 14 16 15 4 0 25 8 47 17 21 9 42 17 47 17 5 0 9 5 9 10 0 6
9 10 20 10 11 0 23 7 26 15 4 8 12 15 20 15 8 0 14 4 14 10 0 5 3 9 8 8 10 -4
72 35 72 45 0 4 4 6 9 2 6 -3 14 3 20 12 6 10 11 15 11 11 0 -5 9 0 19 10 37
33 50 42 61 42 6 0 8 5 5 10 -3 6 1 10 9 10 9 0 16 4 16 9 0 6 13 18 29 27 17
10 28 21 25 25 -2 4 4 10 15 14 11 3 22 13 25 21 3 8 10 12 16 9 5 -3 10 -2
10 4 0 5 14 23 31 40 17 17 28 31 25 31 -3 0 12 16 34 37 24 21 39 42 36 50
-3 8 -1 11 4 8 6 -3 10 -1 10 5 0 6 4 9 9 6 5 -3 12 6 15 19 4 14 10 23 15 21
8 -5 25 30 22 46 -1 5 6 8 14 8 8 0 15 6 15 14 0 8 7 22 16 30 8 9 12 16 8 16
-4 0 1 7 12 15 10 8 15 15 11 15 -5 0 -1 7 7 16 9 8 14 20 11 25 -4 5 1 9 10
9 9 0 14 4 10 10 -7 11 14 51 32 63 7 4 10 13 7 20 -2 7 5 23 16 35 13 14 16
22 8 22 -9 0 -9 3 -2 8 9 6 20 26 29 52 1 3 5 13 9 22 4 9 9 23 10 31 1 8 7
21 14 29 6 8 9 17 6 21 -3 3 0 15 6 27 11 20 18 48 22 88 1 6 4 12 8 12 3 0 7
15 9 33 7 66 8 71 17 74 6 2 8 18 6 37 -2 19 1 37 8 41 8 5 8 10 -1 21 -6 8
-7 14 -2 14 5 0 10 33 12 73 1 39 4 83 7 97 10 67 11 80 5 80 -4 0 -7 10 -8
23 -4 125 -7 157 -13 157 -4 0 -5 12 -2 26 3 16 -1 30 -9 35 -9 5 -9 9 -2 9 6
0 9 9 6 20 -3 11 -10 20 -16 20 -8 0 -8 3 0 11 8 8 7 20 -3 45 -11 27 -12 34
-2 34 9 0 8 3 -2 10 -8 5 -11 10 -6 10 6 0 5 5 -2 12 -7 7 -12 20 -12 30 0 10
-5 18 -11 18 -8 0 -8 4 0 14 8 9 8 15 2 18 -6 1 -12 15 -13 31 -1 15 -6 27
-11 27 -4 0 -5 5 -2 10 3 6 2 10 -4 10 -6 0 -7 7 -4 17 4 11 3 14 -5 9 -8 -4
-10 -2 -6 7 3 8 0 18 -5 22 -6 3 -9 11 -6 16 4 5 1 9 -4 9 -6 0 -11 11 -11 25
0 14 -4 25 -9 25 -9 0 -32 56 -30 74 0 5 -6 13 -15 18 -9 5 -14 13 -11 19 4 5
1 9 -5 9 -6 0 -8 5 -5 10 3 6 2 10 -3 10 -5 0 -17 18 -27 40 -10 22 -22 40
-27 40 -4 0 -8 7 -8 15 0 8 -5 15 -11 15 -5 0 -8 4 -5 8 3 5 -6 20 -20 35 -13
14 -24 31 -24 37 0 6 -5 8 -12 4 -6 -4 -8 -3 -4 4 3 6 -4 22 -16 35 -39 41
-78 91 -78 99 0 4 -7 8 -15 8 -8 0 -15 6 -15 14 0 8 -9 18 -20 21 -11 4 -18
11 -15 16 4 5 0 9 -7 9 -7 0 -22 14 -33 30 -11 16 -25 30 -32 30 -6 0 -15 9
-18 20 -3 11 -11 20 -17 20 -6 0 -17 8 -25 18 -8 9 -11 10 -7 2 5 -8 -9 2 -30
22 -21 21 -43 35 -47 32 -5 -3 -9 2 -9 10 0 8 -9 18 -20 21 -11 4 -32 18 -45
31 -14 14 -25 19 -25 13 0 -7 -7 -4 -15 7 -8 10 -15 15 -15 10 0 -5 -8 1 -19
12 -10 12 -27 22 -39 22 -11 0 -23 7 -26 16 -3 8 -10 12 -16 9 -5 -3 -10 -2
-10 3 0 9 -40 24 -56 22 -3 -1 -11 5 -17 13 -15 18 -116 59 -128 51 -5 -3 -9
2 -9 10 0 11 -7 15 -22 13 -12 -2 -33 2 -47 10 -14 7 -31 13 -38 13 -6 0 -14
6 -16 13 -4 9 -6 8 -6 -2 -1 -10 -4 -11 -14 -3 -7 6 -28 12 -45 14 -18 1 -32
5 -32 8 0 3 -12 7 -27 8 -15 1 -30 8 -35 15 -6 9 -8 9 -8 -1 0 -9 -5 -10 -19
-2 -14 7 -21 6 -24 -3 -4 -9 -6 -9 -6 1 -1 7 -15 12 -35 12 -19 0 -37 4 -41
10 -4 6 -15 6 -32 -1 -15 -6 -30 -6 -37 0 -17 14 -255 14 -272 0 -11 -9 -14
-9 -14 1 0 10 -3 10 -14 1 -8 -7 -16 -8 -18 -3 -1 5 -12 6 -23 1z m71 -623
c12 1 26 4 33 8 6 4 11 2 11 -4 0 -6 5 -8 12 -3 20 11 92 12 99 1 4 -6 12 -7
20 -2 19 12 32 12 46 2 6 -5 14 -5 18 2 3 6 12 7 18 3 7 -4 21 -8 32 -9 72 -7
85 -9 85 -18 0 -5 3 -6 7 -3 3 4 12 2 19 -4 8 -7 14 -7 19 1 4 6 12 5 22 -6
13 -12 17 -13 24 -2 5 7 9 8 9 2 0 -6 17 -16 38 -22 20 -6 54 -20 74 -31 21
-10 36 -15 33 -11 -2 4 13 -2 35 -12 22 -11 40 -24 40 -30 0 -5 4 -7 9 -4 5 3
14 -1 21 -9 7 -8 16 -12 21 -9 5 3 9 -3 9 -13 0 -12 3 -14 8 -6 6 9 12 7 22
-7 8 -11 19 -20 25 -20 5 0 24 -14 42 -30 18 -17 36 -30 40 -30 4 0 17 -13 28
-29 10 -16 23 -27 27 -25 4 3 8 0 8 -6 0 -6 4 -9 9 -6 4 3 13 -6 19 -19 7 -14
16 -25 22 -25 5 0 10 -7 10 -15 0 -8 6 -15 14 -15 8 0 18 -9 21 -20 4 -11 18
-32 31 -45 14 -14 23 -29 19 -34 -3 -5 4 -12 15 -16 11 -4 18 -10 15 -15 -3
-5 2 -15 10 -23 8 -9 15 -23 15 -31 0 -9 5 -16 11 -16 5 0 7 -5 4 -10 -3 -6 0
-12 7 -15 8 -3 15 -15 15 -27 1 -12 7 -24 13 -28 6 -3 12 -15 14 -26 3 -10 11
-35 20 -55 8 -20 17 -48 20 -63 3 -15 10 -34 17 -42 9 -11 9 -14 -1 -14 -9 0
-10 -3 -1 -13 6 -8 8 -17 4 -20 -3 -4 -2 -7 3 -7 5 0 10 -8 11 -17 5 -87 7
-103 15 -103 5 0 4 -9 -2 -20 -8 -15 -8 -20 2 -20 9 0 9 -3 -2 -10 -8 -5 -10
-10 -5 -10 12 0 13 -40 1 -58 -4 -7 -2 -12 4 -12 6 0 8 -5 3 -12 -10 -17 -13
-38 -4 -38 9 0 7 -42 -3 -58 -4 -7 -2 -12 5 -12 8 0 9 -3 0 -14 -6 -7 -12 -32
-13 -55 -1 -23 -5 -44 -10 -47 -4 -3 -6 -10 -2 -15 3 -5 0 -25 -6 -43 -6 -19
-13 -47 -16 -62 -3 -15 -10 -37 -17 -48 -6 -12 -10 -27 -9 -34 2 -7 -4 -15
-12 -18 -9 -3 -14 -9 -11 -13 2 -4 -2 -19 -10 -34 -7 -14 -11 -28 -7 -31 3 -3
0 -6 -7 -6 -7 0 -9 -4 -6 -10 3 -5 1 -10 -4 -10 -6 0 -11 -7 -11 -15 0 -8 -5
-15 -11 -15 -5 0 -7 -5 -4 -10 3 -6 -1 -13 -9 -16 -9 -3 -14 -9 -11 -14 2 -4
-10 -22 -28 -40 -18 -19 -25 -30 -17 -25 16 9 -12 -28 -44 -57 -10 -10 -16
-18 -12 -18 4 0 -7 -12 -24 -26 -17 -15 -29 -29 -26 -31 3 -3 -16 -22 -42 -43
-26 -20 -62 -51 -79 -67 -18 -17 -33 -27 -33 -22 0 6 -6 4 -14 -3 -8 -7 -12
-16 -10 -19 2 -3 -12 -12 -31 -19 -19 -8 -35 -17 -35 -21 0 -4 -11 -10 -25
-13 -14 -4 -34 -15 -45 -26 -11 -11 -20 -17 -20 -14 0 4 -7 1 -15 -6 -11 -9
-15 -10 -15 -1 0 8 -5 7 -15 -2 -8 -9 -38 -23 -67 -32 -29 -10 -59 -23 -67
-29 -11 -8 -13 -8 -7 1 5 9 2 11 -8 7 -9 -3 -16 -10 -16 -16 0 -5 -5 -6 -10
-3 -6 4 -17 1 -25 -5 -11 -9 -15 -9 -15 -1 0 9 -5 9 -21 1 -11 -7 -27 -9 -35
-6 -8 3 -14 0 -14 -6 0 -6 -3 -8 -7 -5 -3 4 -12 2 -20 -4 -10 -9 -13 -8 -13 0
0 7 -5 9 -10 6 -20 -12 -193 -18 -186 -6 5 8 0 8 -17 2 -14 -6 -27 -8 -28 -6
-2 1 -31 6 -64 10 -88 11 -89 11 -106 19 -9 4 -33 8 -53 9 -22 1 -36 7 -36 15
0 7 -4 11 -9 8 -5 -4 -22 -1 -38 5 -15 6 -30 11 -33 12 -3 0 -16 6 -29 13 -14
7 -28 11 -32 9 -4 -3 -10 2 -13 11 -4 9 -13 14 -21 10 -8 -3 -15 -1 -15 4 0 6
-7 10 -15 10 -8 0 -15 5 -15 10 0 6 -9 10 -21 10 -11 0 -18 4 -15 9 3 5 -4 11
-17 15 -12 3 -34 17 -49 31 -15 14 -31 25 -36 25 -5 0 -16 9 -23 20 -8 10 -20
20 -27 22 -15 3 -92 77 -92 87 0 4 -11 14 -25 21 -14 8 -28 24 -31 36 -3 12
-12 25 -21 28 -8 3 -12 10 -8 15 3 5 -3 12 -14 16 -10 3 -25 20 -32 38 -7 18
-16 34 -20 37 -3 3 -16 24 -28 48 -12 23 -25 42 -30 42 -5 0 -8 8 -6 18 1 9
-5 28 -15 42 -9 14 -15 31 -13 38 3 6 0 12 -6 12 -6 0 -11 11 -11 25 0 14 -5
25 -12 25 -6 0 -9 3 -5 6 3 4 0 22 -8 40 -10 25 -11 34 -2 34 9 0 9 2 1 8 -11
7 -23 52 -27 100 -1 12 -4 22 -7 22 -4 0 -4 16 -2 36 3 22 0 39 -8 44 -8 5 -9
13 -4 21 11 18 14 39 5 39 -9 0 -7 42 3 58 4 7 2 12 -4 12 -6 0 -8 5 -4 12 5
7 9 31 11 53 2 22 5 48 7 58 2 9 -1 17 -7 17 -7 0 -6 4 2 9 8 5 11 16 8 25 -3
8 0 22 9 30 10 10 11 17 3 22 -7 4 -8 9 -1 13 6 3 12 20 14 36 2 17 10 35 18
42 12 10 12 12 1 13 -10 0 -11 3 -2 13 6 8 8 17 4 20 -3 4 -1 7 6 7 8 0 11 6
7 16 -3 8 -2 13 3 10 5 -3 12 10 15 28 4 19 11 36 17 38 5 2 11 10 13 18 1 8
8 25 14 38 7 12 10 22 7 22 -3 0 0 6 7 14 7 8 15 12 18 11 3 -2 7 6 7 18 1 12
7 23 12 25 6 2 18 19 27 38 9 18 20 31 25 28 5 -3 9 2 9 11 0 8 7 18 15 21 8
4 12 10 9 15 -3 5 -1 9 5 9 5 0 12 9 16 19 3 11 15 23 26 26 10 4 17 10 14 15
-3 5 4 12 16 15 11 4 18 9 15 13 -7 6 36 38 47 34 4 -1 6 3 5 10 -2 7 4 12 12
13 8 1 14 6 12 13 -1 7 3 12 8 12 11 0 24 10 61 43 11 10 19 12 19 5 0 -6 8
-2 18 8 21 24 82 58 82 47 0 -4 5 0 11 10 5 9 18 17 29 17 10 0 20 3 22 8 4 9
93 43 131 49 15 3 27 9 27 14 0 4 9 6 20 4 11 -2 20 1 20 6 0 6 5 7 10 4 6 -3
10 -1 10 6 0 8 4 8 13 1 8 -7 18 -7 27 -2 8 6 27 10 43 10 15 0 27 6 27 13 0
8 3 8 8 2 4 -6 17 -10 28 -9z"/>
</g>
</svg>
